<svg viewBox="0 0 698 73" xmlns="http://www.w3.org/2000/svg" fill="#ffffff"><path d="M155.11 9.62c1.649.078 3.208-.757 4.056-2.174.848-1.417.848-3.185 0-4.602-.848-1.417-2.406-2.252-4.056-2.174-1.649-.078-3.208.757-4.056 2.174-.848 1.417-.848 3.185 0 4.602.848 1.417 2.406 2.252 4.056 2.174zm15.25 0c2.389-.113 4.268-2.083 4.268-4.475 0-2.392-1.879-4.362-4.268-4.475-1.649-.078-3.208.757-4.056 2.174-.848 1.417-.848 3.185 0 4.602.848 1.417 2.406 2.252 4.056 2.174zm163.29 54.03h-4.06v-35.21c-.006-6.216-5.044-11.254-11.26-11.26h-13.2c-12.436.017-22.513 10.094-22.53 22.53v23.94h-4.06c-2.485 0-4.5 2.015-4.5 4.5s2.015 4.5 4.5 4.5h55.11c2.485 0 4.5-2.015 4.5-4.5s-2.015-4.5-4.5-4.5zm-42.1-23.94c.016-7.493 6.087-13.564 13.58-13.58h13.2c1.274.005 2.305 1.036 2.31 2.31v35.21h-29.09v-23.94zm-23.89-6.44c-.011-8.882-7.208-16.079-16.09-16.09h-18.71c-1.649-.078-3.208.757-4.056 2.174-.848 1.417-.848 3.185 0 4.602.848 1.417 2.406 2.252 4.056 2.174h18.71c3.842.144 6.883 3.3 6.883 7.145 0 3.845-3.041 7.001-6.883 7.145h-9.2c-1.649-.078-3.208.757-4.056 2.174-.848 1.417-.848 3.185 0 4.602.848 1.417 2.406 2.252 4.056 2.174h9.2c3.943 0 7.14 3.197 7.14 7.14 0 3.943-3.197 7.14-7.14 7.14h-18.71c-2.485 0-4.5 2.015-4.5 4.5s2.015 4.5 4.5 4.5h18.71c6.576.008 12.493-3.99 14.938-10.094 2.445-6.104.925-13.082-3.838-17.616 3.201-3.036 5.007-7.258 4.99-11.67zm-155.2-16.09h-22c-8.039.006-14.554 6.521-14.56 14.56v15.31c.275 13.917 11.636 25.054 25.555 25.054s25.28-11.138 25.555-25.054v-15.31c-.006-8.035-6.515-14.549-14.55-14.56zm5.61 29.87c-.011 9.163-7.437 16.589-16.6 16.6-9.163-.011-16.589-7.437-16.6-16.6v-15.31c0-3.094 2.506-5.604 5.6-5.61h22c3.096.006 5.604 2.514 5.61 5.61l-.01 15.31zm-66.7-29.87h-.77c-6.9.182-13.329 3.541-17.42 9.1-4.087-5.559-10.513-8.918-17.41-9.1h-.77c-9.56 0-14.56 7.73-14.56 15.36v35.59c0 2.485 2.015 4.5 4.5 4.5s4.5-2.015 4.5-4.5v-35.59c0-.66.16-6.41 5.6-6.41h.57c7.236.254 13.007 6.13 13.13 13.37v5.38c0 2.485 2.015 4.5 4.5 4.5s4.5-2.015 4.5-4.5v-5.38c.133-7.239 5.904-13.111 13.14-13.37h.57c5.44 0 5.6 5.75 5.6 6.41v35.59c.113 2.389 2.083 4.268 4.475 4.268 2.392 0 4.362-1.879 4.475-4.268v-35.59c-.08-7.63-5.08-15.36-14.63-15.36zm329.29 0h-22c-8.039.006-14.554 6.521-14.56 14.56v15.31c.275 13.917 11.636 25.054 25.555 25.054s25.28-11.138 25.555-25.054v-15.31c-.006-8.035-6.515-14.549-14.55-14.56zm5.6 29.87c.148 6.026-2.982 11.659-8.178 14.715-5.195 3.056-11.639 3.056-16.835 0-5.195-3.056-8.326-8.689-8.178-14.715v-15.31c0-3.094 2.506-5.604 5.6-5.61h22c3.094.006 5.6 2.516 5.6 5.61l-.01 15.31zm115.91-29.87h-22c-8.039.006-14.554 6.521-14.56 14.56v15.31c.275 13.917 11.636 25.054 25.555 25.054s25.28-11.138 25.555-25.054v-15.31c-.006-8.035-6.515-14.549-14.55-14.56zm5.6 29.87c.148 6.026-2.982 11.659-8.178 14.715-5.195 3.056-11.639 3.056-16.835 0-5.195-3.056-8.326-8.689-8.178-14.715v-15.31c0-3.094 2.506-5.604 5.6-5.61h22c3.094.006 5.6 2.516 5.6 5.61l-.01 15.31zm-400.47-5.93h-2.7v-2.7c0-1.729-1.401-3.13-3.13-3.13-1.729 0-3.13 1.401-3.13 3.13v2.7h-2.71c-1.729 0-3.13 1.401-3.13 3.13 0 1.729 1.401 3.13 3.13 3.13h2.71v2.71c0 1.729 1.401 3.13 3.13 3.13 1.729 0 3.13-1.401 3.13-3.13v-2.71h2.7c1.729 0 3.13-1.401 3.13-3.13 0-1.729-1.401-3.13-3.13-3.13zm43.19 12.57h14.6c12.803-.011 23.179-10.387 23.19-23.19-.005-7.339-5.941-13.292-13.28-13.32h-24.51c-7.354.006-13.314 5.966-13.32 13.32v22.59c.017 10.772 8.748 19.499 19.52 19.51h21.15c2.485 0 4.5-2.015 4.5-4.5s-2.015-4.5-4.5-4.5h-21.15c-5.83-.006-10.554-4.73-10.56-10.56v-.15c1.397.513 2.872.783 4.36.8zm0-27.56h24.51c2.41.006 4.36 1.96 4.36 4.37-.006 7.857-6.373 14.224-14.23 14.23h-14.6c-1.156 0-2.265-.459-3.083-1.277-.818-.818-1.277-1.927-1.277-3.083v-9.87c0-2.394 1.926-4.343 4.32-4.37zm536.63 37.21h-21.12c-5.835-.006-10.564-4.735-10.57-10.57v-.14c1.405.49 2.882.743 4.37.75h14.6c12.798-.022 23.168-10.392 23.19-23.19-.006-7.354-5.966-13.314-13.32-13.32h-24.5c-7.354.006-13.314 5.966-13.32 13.32v22.58c.011 10.788 8.762 19.526 19.55 19.52h21.15c2.485 0 4.5-2.015 4.5-4.5s-2.015-4.5-4.5-4.5l-.03.05zm-27.35-37.52h24.47c2.41.006 4.36 1.96 4.36 4.37-.006 7.857-6.373 14.224-14.23 14.23h-14.6c-2.41 0-4.364-1.95-4.37-4.36v-9.87c0-2.413 1.957-4.37 4.37-4.37zm-216.18-8.64h-24.47c-7.354.006-13.314 5.966-13.32 13.32v37.63c0 2.485 2.015 4.5 4.5 4.5s4.5-2.015 4.5-4.5v-15.19c1.4.495 2.875.748 4.36.75h14.6c12.803-.011 23.179-10.387 23.19-23.19-.003-3.539-1.412-6.931-3.918-9.43-2.506-2.499-5.903-3.898-9.442-3.89zm-9.87 27.55h-14.6c-2.408 0-4.36-1.952-4.36-4.36v-9.87c0-2.41 1.95-4.364 4.36-4.37h24.47c1.166-.011 2.288.445 3.116 1.266.828.821 1.294 1.938 1.294 3.104-.003 3.782-1.51 7.407-4.188 10.077-2.679 2.67-6.31 4.164-10.092 4.153zm182.28-8.63h-14.6c-1.489.002-2.966.255-4.37.75v-15.19c.078-1.649-.757-3.208-2.174-4.056-1.417-.848-3.185-.848-4.602 0-1.417.848-2.252 2.406-2.174 4.056v37.63c.011 7.35 5.97 13.304 13.32 13.31h24.47c7.349-.006 13.304-5.961 13.31-13.31-.011-12.799-10.381-23.173-23.18-23.19zm9.87 27.55h-24.48c-2.41 0-4.364-1.95-4.37-4.36v-9.87c0-2.413 1.957-4.37 4.37-4.37h14.61c7.856.017 14.219 6.384 14.23 14.24-.006 2.41-1.96 4.36-4.37 4.36h.01zm-64.21-46.47h-21.66c-7.354.006-13.314 5.966-13.32 13.32v28.79c.011 7.35 5.97 13.304 13.32 13.31h21.69c6.571 0 12.482-3.995 14.931-10.093s.944-13.072-3.801-17.617c4.746-4.545 6.25-11.519 3.801-17.617-2.449-6.098-8.36-10.093-14.931-10.093h-.03zm0 46.47h-21.66c-2.41 0-4.364-1.95-4.37-4.36v-10.16c.463.161.95.242 1.44.24h24.62c2.551 0 4.908 1.361 6.183 3.57 1.275 2.209 1.275 4.931 0 7.14-1.275 2.209-3.633 3.57-6.183 3.57h-.03zm0-23.23h-24.66c-.489-.001-.975.077-1.44.23v-10.15c0-2.413 1.957-4.37 4.37-4.37h21.69c3.842.144 6.883 3.3 6.883 7.145 0 3.845-3.041 7.001-6.883 7.145h.04z"/></svg>
