<svg xmlns="http://www.w3.org/2000/svg" width="490" height="359" viewBox="0 0 490 359"><title>Монтажная область 1</title><path d="M460.31 358a241.33 241.33 0 0 0 28.69-114.5c0-133.93-108.57-242.5-242.5-242.5s-242.5 108.57-242.5 242.5a242.3 242.3 0 0 0 12.25 76.32" style="isolation:isolate" stroke="#4c6fa6" opacity=".12" fill="none"/><path d="M344.11 343.13a139.49 139.49 0 1 0-216.17-18.46" style="isolation:isolate" stroke="#4c6fa6" opacity=".3" fill="none"/><path d="M426.55 132.34h-1.88l4.84-9.62h-5.64v-1.58h7.65v1.36zm14.09 0h-7.8v-1.28l3.52-3.3a11.88 11.88 0 0 0 1.64-1.76 2.72 2.72 0 0 0 .48-1.54 1.71 1.71 0 0 0-.61-1.37 2.47 2.47 0 0 0-1.61-.52 4.51 4.51 0 0 0-3.14 1.4v-1.87a4.94 4.94 0 0 1 3.31-1.17 4 4 0 0 1 2.69.91 2.9 2.9 0 0 1 1.12 2.38 3.86 3.86 0 0 1-.56 2.07 11.89 11.89 0 0 1-1.89 2.18l-2.41 2.3h5.25z" fill="#b8c9e5"/><circle cx="450" cy="112" r="5" style="isolation:isolate" fill="#cbe2fb" opacity=".6"/><path d="M212.4 26.55a4 4 0 0 1-3.21-1.4 5.86 5.86 0 0 1-1.19-3.85 7.55 7.55 0 0 1 1.33-4.53 4.25 4.25 0 0 1 3.67-1.84 4.43 4.43 0 0 1 2.47.7v1.6a4 4 0 0 0-2.28-.7 3 3 0 0 0-2.48 1.12 4.75 4.75 0 0 0-.91 2.72 3.44 3.44 0 0 1 2.9-1.27 3.6 3.6 0 0 1 2.56 1 3.43 3.43 0 0 1 1 2.57 3.7 3.7 0 0 1-1.14 2.8 3.88 3.88 0 0 1-2.72 1.08zm-.11-1.55a2.26 2.26 0 0 0 1.65-.64 2.2 2.2 0 0 0 .66-1.64 2 2 0 0 0-.68-1.57 2.33 2.33 0 0 0-1.65-.61 2.62 2.62 0 0 0-1.55.51 2.37 2.37 0 0 0-.93 1.27 3.15 3.15 0 0 0 .76 2 2.23 2.23 0 0 0 1.74.68zm12.31-4.62a3.46 3.46 0 0 1 1.62 1.09 2.71 2.71 0 0 1 .6 1.75 2.82 2.82 0 0 1-1.26 2.43 5.22 5.22 0 0 1-3.11.9 5.32 5.32 0 0 1-3.12-.9 2.82 2.82 0 0 1-1.26-2.43 2.7 2.7 0 0 1 .61-1.75 3.49 3.49 0 0 1 1.63-1.09 2.82 2.82 0 0 1-1.24-1 2.39 2.39 0 0 1-.46-1.46 2.64 2.64 0 0 1 1.09-2.17 4.87 4.87 0 0 1 5.49 0 2.62 2.62 0 0 1 1.09 2.25 2.47 2.47 0 0 1-.45 1.46 2.73 2.73 0 0 1-1.23.92zm.42 2.73a1.69 1.69 0 0 0-.74-1.4 3.39 3.39 0 0 0-3.67 0 1.66 1.66 0 0 0-.73 1.4 1.64 1.64 0 0 0 .73 1.39 3.29 3.29 0 0 0 3.67 0 1.66 1.66 0 0 0 .72-1.39zm-4.11-3.78a2.71 2.71 0 0 0 3.08 0 1.56 1.56 0 0 0 0-2.47 2.71 2.71 0 0 0-3.08 0 1.54 1.54 0 0 0 0 2.47z" fill="#b8c9e5"/><circle cx="199" cy="6" r="5" style="isolation:isolate" fill="#cbe2fb" opacity=".6"/><path d="M17.87 247.55a6.28 6.28 0 0 1-3.15-.77v-1.65a5.73 5.73 0 0 0 3.07.85 3.4 3.4 0 0 0 2-.61 2 2 0 0 0 .05-3.25 3.13 3.13 0 0 0-2-.62 8.19 8.19 0 0 0-2.69.48l.74-5.85h5.76v1.54h-4.48l-.32 2.58a5.56 5.56 0 0 1 1.41-.18 4.46 4.46 0 0 1 3 1 3.31 3.31 0 0 1 1.19 2.64 3.34 3.34 0 0 1-1.32 2.79 5 5 0 0 1-3.26 1.05zm9.48 0a6.18 6.18 0 0 1-3.15-.77v-1.65a5.65 5.65 0 0 0 3.07.85 3.31 3.31 0 0 0 2-.61 2.05 2.05 0 0 0 .06-3.25 3.19 3.19 0 0 0-2-.62 8.19 8.19 0 0 0-2.69.48l.73-5.85h5.77v1.54h-4.49l-.32 2.58a5.54 5.54 0 0 1 1.4-.18 4.48 4.48 0 0 1 3 1 3.28 3.28 0 0 1 1.18 2.64 3.36 3.36 0 0 1-1.31 2.79 5.14 5.14 0 0 1-3.25 1.05z" fill="#b8c9e5"/><circle cx="5" cy="227" r="5" style="isolation:isolate" fill="#cbe2fb" opacity=".6"/></svg>