<svg xmlns="http://www.w3.org/2000/svg" width="32" height="32" fill="#20b2e1" viewBox="0 0 512 512" enable-background="new 0 0 512 512"><path d="M326 256c-5.52 0-10 4.48-10 10s4.48 10 10 10 10-4.48 10-10-4.48-10-10-10zM416 416h-11.946l-32.555-182.521c-6.06-33.305-35.027-57.479-68.879-57.479h-93.24c-33.858 0-62.822 24.175-68.875 57.513l-32.559 182.487h-11.946c-16.542 0-30 13.458-30 30v40c0 5.522 4.477 10 10 10h360c5.522 0 10-4.478 10-10v-40c0-16.542-13.458-30-30-30zm-255.811-178.944c4.319-23.789 25.007-41.056 49.191-41.056h93.24c24.181 0 44.873 17.268 49.195 41.025l31.923 178.975h-255.476l31.927-178.944zm265.811 238.944h-340v-30c0-5.514 4.486-10 10-10h320c5.514 0 10 4.486 10 10v30zM358.239 384.213l-14.67-80.75c-.987-5.436-6.202-9.044-11.626-8.052-5.435.987-9.039 6.192-8.052 11.626l14.67 80.75c.994 5.476 6.242 9.036 11.626 8.052 5.435-.987 9.04-6.193 8.052-11.626zM502 256h-86c-5.522 0-10 4.478-10 10s4.478 10 10 10h86c5.522 0 10-4.478 10-10s-4.478-10-10-10zM96 256h-86c-5.523 0-10 4.478-10 10s4.477 10 10 10h86c5.523 0 10-4.478 10-10s-4.477-10-10-10zM432.781 89.219c-3.906-3.904-10.236-3.904-14.143 0l-56.57 56.57c-3.905 3.905-3.905 10.237 0 14.143 3.907 3.905 10.236 3.904 14.143 0l56.57-56.57c3.906-3.906 3.906-10.238 0-14.143zM149.932 145.789l-56.57-56.57c-3.906-3.904-10.237-3.905-14.143 0-3.905 3.905-3.905 10.237 0 14.143l56.57 56.57c3.907 3.905 10.237 3.905 14.143 0 3.905-3.905 3.905-10.237 0-14.143zM256 16c-5.522 0-10 4.478-10 10v80c0 5.522 4.478 10 10 10s10-4.478 10-10v-80c0-5.522-4.478-10-10-10z"/></svg>