<svg xmlns="http://www.w3.org/2000/svg" width="32" height="32" fill="#20b2e1" viewBox="0 0 512 512" enable-background="new 0 0 512 512"><path d="M236 126c-5.52 0-10 4.48-10 10s4.48 10 10 10 10-4.48 10-10-4.48-10-10-10zM406 246c16.542 0 30-13.458 30-30v-20c0-16.542-13.458-30-30-30h-10v-10c0-37.047-28.934-67.446-65.388-69.831-8.599-49.136-10.985-62.9-11.122-63.45-3.352-13.377-15.323-22.719-29.11-22.719h-108.76c-13.787 0-25.758 9.342-29.11 22.719-.138.55-2.523 14.314-11.122 63.45-36.454 2.385-65.388 32.784-65.388 69.831v200c0 37.047 28.934 67.446 65.388 69.831l10.972 62.741c.042.238.092.474.15.708 3.352 13.378 15.323 22.72 29.11 22.72h108.76c13.787 0 25.758-9.342 29.11-22.719.059-.234.108-.471.15-.708l10.972-62.741c36.454-2.386 65.388-32.785 65.388-69.832v-10h10c16.542 0 30-13.458 30-30v-20c0-16.542-13.458-30-30-30h-10v-20h10zm-10-60h10c5.514 0 10 4.486 10 10v20c0 5.514-4.486 10-10 10h-10v-40zm-224.013-158.71c1.217-4.308 5.135-7.29 9.633-7.29h108.76c4.498 0 8.416 2.982 9.633 7.29l10.266 58.71h-148.558l10.266-58.71zm128.026 457.42c-1.217 4.308-5.135 7.29-9.633 7.29h-108.76c-4.498 0-8.416-2.982-9.633-7.29l-10.266-58.71h148.558l-10.266 58.71zm75.987-128.71c0 27.57-22.43 50-50 50h-180c-27.57 0-50-22.43-50-50v-200c0-27.57 22.43-50 50-50h180c27.57 0 50 22.43 50 50v200zm30-70c5.514 0 10 4.486 10 10v20c0 5.514-4.486 10-10 10h-10v-40h10zM326 126h-50c-5.522 0-10 4.477-10 10s4.478 10 10 10h50c5.514 0 10 4.486 10 10v90h-50c-4.305 0-8.126 2.754-9.487 6.838l-10.513 31.539-10.513-31.54c-1.361-4.083-5.182-6.837-9.487-6.837h-12.192l-18.106-72.425c-1.113-4.452-5.113-7.575-9.702-7.575s-8.589 3.123-9.701 7.575l-18.107 72.425h-42.192v-90c0-5.514 4.486-10 10-10h30c5.522 0 10-4.477 10-10s-4.478-10-10-10h-30c-16.542 0-30 13.458-30 30v200c0 16.542 13.458 30 30 30h180c16.542 0 30-13.458 30-30v-200c0-16.542-13.458-30-30-30zm10 230c0 5.514-4.486 10-10 10h-180c-5.514 0-10-4.486-10-10v-90h50c4.589 0 8.589-3.123 9.701-7.575l10.299-41.194 10.299 41.194c1.112 4.452 5.112 7.575 9.701 7.575h12.792l17.721 53.162c1.361 4.083 5.183 6.838 9.487 6.838s8.126-2.754 9.487-6.838l17.721-53.162h42.792v90z"/></svg>