<svg xmlns="http://www.w3.org/2000/svg" width="32" height="32" fill="#20b2e1" viewBox="0 0 480 480" enable-background="new 0 0 480 480"><path d="M160 40h160v16h-160zM396 300c0-15.438-12.563-28-28-28h-16v-112h-16v112h-20c-15.438 0-28 12.563-28 28 0 7.838 3.258 14.912 8.466 20-5.208 5.088-8.466 12.162-8.466 20 0 5.393 1.605 10.39 4.259 14.668-9.57 4.457-16.259 14.1-16.259 25.332 0 4.311 1.061 8.349 2.809 12h-62.809c0-24.461-12.258-46.109-30.953-59.125 18.078-6.891 30.953-24.406 30.953-44.875 0-4.418-3.578-8-8-8h-64v-80h-16v80c-13.234 0-24 10.766-24 24v176h16v-176c0-4.41 3.586-8 8-8h70.984c-3.555 13.785-16.102 24-30.984 24h-24c-4.422 0-8 3.582-8 8s3.578 8 8 8c30.875 0 56 25.121 56 56v8c0 4.418 3.578 8 8 8h46.809c-1.748 3.651-2.809 7.689-2.809 12 0 15.438 12.563 28 28 28v32h16v-32h36c15.438 0 28-12.563 28-28 0-4.357-1.087-8.433-2.871-12.114 14.905-.608 26.871-12.835 26.871-27.886 0-5.393-1.605-10.39-4.259-14.668 9.57-4.457 16.259-14.1 16.259-25.332 0-7.838-3.258-14.912-8.466-20 5.208-5.088 8.466-12.162 8.466-20zm-64 132h-52c-6.617 0-12-5.383-12-12s5.383-12 12-12h52c6.617 0 12 5.383 12 12s-5.383 12-12 12zm24-40h-52c-6.617 0-12-5.383-12-12s5.383-12 12-12h52c6.617 0 12 5.383 12 12s-5.383 12-12 12zm12-40h-52c-6.617 0-12-5.383-12-12s5.383-12 12-12h52c6.617 0 12 5.383 12 12s-5.383 12-12 12zm0-40h-52c-6.617 0-12-5.383-12-12s5.383-12 12-12h52c6.617 0 12 5.383 12 12s-5.383 12-12 12zM119.977 101.828c-.164-2.297-1.305-4.414-3.141-5.805l-8.328-6.313c-1.992-10.085-10.844-17.71-21.43-17.71-11.945 0-21.688 9.711-21.844 21.707-6.391-1.117-12.5-3.57-17.969-7.254l-2.789-1.883c-2.445-1.652-5.617-1.832-8.234-.434-2.609 1.387-4.242 4.106-4.242 7.063v6.563c0 9.641 2.906 18.836 8.297 26.559l-5.984 6.055c-2.273 2.293-2.938 5.727-1.695 8.707 1.241 2.976 4.155 4.917 7.382 4.917h38.766c15.461 0 28.242-11.785 29.961-26.91l8.961-9.066c1.617-1.637 2.453-3.895 2.289-6.196zm-24.743 6.149c-1.484 1.496-2.313 3.52-2.313 5.625 0 7.938-6.352 14.398-14.156 14.398h-20.351c1.266-2.914.719-6.43-1.648-8.824-3.734-3.781-6.406-8.539-7.758-13.668 7.633 3.219 15.836 4.891 24.227 4.891 4.422 0 8-3.582 8-8v-8.399c0-3.309 2.625-6 5.844-6s5.844 2.691 5.844 6c0 2.504 1.172 4.863 3.164 6.375l3.813 2.887-4.666 4.715zM264 136v-16h-24c-4.422 0-8 3.582-8 8v24h-16v16h16v32h16v-32h16v-16h-16v-16h16zM288 88h-96c-13.234 0-24 10.766-24 24v96c0 13.234 10.766 24 24 24h96c13.234 0 24-10.766 24-24v-96c0-13.234-10.766-24-24-24zm8 120c0 4.41-3.586 8-8 8h-96c-4.414 0-8-3.59-8-8v-96c0-4.41 3.586-8 8-8h96c4.414 0 8 3.59 8 8v96zM120 40h-96c-13.234 0-24 10.766-24 24v96c0 13.234 10.766 24 24 24h96c13.234 0 24-10.766 24-24v-96c0-13.234-10.766-24-24-24zm8 120c0 4.41-3.586 8-8 8h-96c-4.414 0-8-3.59-8-8v-96c0-4.41 3.586-8 8-8h96c4.414 0 8 3.59 8 8v96zM456 0h-96c-13.234 0-24 10.766-24 24v96c0 13.234 10.766 24 24 24h96c13.234 0 24-10.766 24-24v-96c0-13.234-10.766-24-24-24zm8 120c0 4.41-3.586 8-8 8h-96c-4.414 0-8-3.59-8-8v-40h16.809c3.717 18.234 19.876 32 39.191 32s35.474-13.766 39.191-32h16.809v40zm-80-48c0-13.234 10.766-24 24-24s24 10.766 24 24-10.766 24-24 24-24-10.766-24-24zm80-8h-16.809c-3.717-18.234-19.876-32-39.191-32s-35.474 13.766-39.191 32h-16.809v-40c0-4.41 3.586-8 8-8h96c4.414 0 8 3.59 8 8v40zM232 328h16v16h-16z"/></svg>